<?xml version="1.0" encoding="utf-8"?>
<svg viewBox="0 0 350 310" xmlns="http://www.w3.org/2000/svg">
    <defs />
    <path fill="#AA69F8"
        d="M 266.473 100.53 C 267.346 101.244 268.219 101.958 269.479 103.241 C 276.372 110.637 283.195 117.192 289.306 124.355 C 297.874 134.397 305.913 144.89 314.177 155.19 C 331.117 181.728 342.059 210.466 344.309 241.98 C 345.849 263.555 346.111 285.22 346.961 307.284 L 286.529 307.284 C 286.529 305.229 286.566 303.316 286.523 301.406 C 286.136 284.259 286.122 267.092 285.221 249.972 C 284.428 234.913 280.155 220.531 274.356 205.902 C 273.773 204.163 273.455 202.981 272.758 202.098 C 261.018 187.22 249.284 172.337 237.372 157.598 C 236.172 156.113 233.832 155.548 232.073 154.208 C 231.22 152.378 230.553 150.666 229.371 149.455 C 221.493 141.388 213.201 133.705 205.628 125.367 C 194.846 113.495 184.566 101.167 174.113 88.645 C 174.845 86.773 175.411 85.215 176.245 83.817 C 180.555 76.593 185.485 69.68 189.179 62.158 C 197.917 44.365 204.902 26.055 202.376 5.521 C 201.991 2.389 200.86 1.659 198.056 1.671 C 181.43 1.743 164.803 1.733 148.178 1.641 C 145.136 1.622 144.268 2.774 144.082 5.739 C 143.871 9.114 142.804 12.435 142.109 15.779 C 142.112 15.047 142.17 14.316 142.285 13.593 C 142.472 12.75 142.459 12.488 142.401 12.229 L 143.931 0.566 L 203.09 0.566 C 204.023 6.84 204.55 13.296 205.99 19.541 C 210.882 40.765 222.39 58.194 237.846 73.172 C 247.152 82.19 256.655 91.003 266.264 100.227 C 266.46 100.547 266.473 100.53 266.473 100.53" />
    <path fill="#A44FF7"
        d="M 32.216 154.649 C 31.336 152.372 30.791 149.889 29.526 147.85 C 12.888 121.018 3.439 91.844 2.186 60.342 C 1.402 40.605 2.041 20.812 2.041 0.542 L 60.258 0.542 C 60.258 2.449 60.2 4.369 60.267 6.283 C 60.921 25.063 60.83 43.913 62.557 62.595 C 63.554 73.368 67.497 83.868 70.214 94.855 C 70.315 95.218 70.321 95.1 70.321 95.1 C 70.546 95.719 70.772 96.337 70.975 97.666 C 72.705 101.174 74.458 103.971 76.282 107.106 C 83.319 117.036 90.148 126.733 97.305 136.181 C 101.35 141.521 105.935 146.451 110.422 151.876 C 111.527 152.656 112.485 153.127 113.39 153.611 C 113.337 153.623 113.326 153.515 113.436 153.758 C 113.816 154.228 114.084 154.454 114.318 154.682 C 114.283 154.683 114.288 154.614 114.416 154.837 C 114.814 155.267 115.085 155.474 115.32 155.683 C 115.285 155.685 115.288 155.615 115.416 155.84 C 115.816 156.269 116.088 156.474 116.323 156.68 C 116.287 156.68 116.289 156.607 116.416 156.832 C 116.816 157.264 117.087 157.472 117.323 157.68 C 117.287 157.68 117.29 157.61 117.412 157.833 C 117.798 158.267 118.062 158.477 118.297 158.691 C 118.269 158.695 118.282 158.64 118.413 158.857 C 118.813 159.277 119.08 159.48 119.314 159.687 C 119.281 159.69 119.285 159.623 119.416 159.844 C 119.82 160.27 120.093 160.474 120.326 160.68 C 120.288 160.68 120.289 160.603 120.421 160.83 C 120.831 161.262 121.111 161.468 121.341 161.675 C 121.294 161.677 121.295 161.581 121.426 161.814 C 121.845 162.251 122.133 162.456 122.362 162.662 C 122.303 162.664 122.305 162.547 122.438 162.787 C 122.868 163.231 123.166 163.435 123.393 163.643 C 123.323 163.646 123.326 163.505 123.456 163.754 C 123.896 164.204 124.207 164.404 124.437 164.607 C 124.355 164.611 124.364 164.448 124.479 164.71 C 124.907 165.179 125.219 165.385 125.445 165.604 C 125.358 165.616 125.35 165.439 125.493 165.713 C 125.981 166.198 126.327 166.41 126.973 166.736 C 129.193 168.686 131.221 170.421 133.013 172.373 C 145.913 186.415 158.766 200.502 171.356 214.765 C 172.614 220.008 169.847 223.773 167.339 227.647 C 164.381 232.216 160.771 236.537 158.742 241.497 C 154.387 252.143 151.014 263.187 146.92 273.947 C 145.468 277.763 143.09 281.227 140.937 284.831 C 140.739 284.811 140.342 284.829 140.342 284.829 C 140.262 284.244 140.182 283.659 140.193 282.442 C 139.921 281.232 139.558 280.654 139.193 280.077 C 138.014 277.403 136.761 274.759 135.667 272.051 C 129.643 257.149 120.099 244.645 108.774 233.511 C 98.706 223.613 88.198 214.161 77.788 204.617 C 76.902 203.805 75.285 203.79 73.668 203.231 C 72.268 201.086 71.615 198.696 70.084 197.211 C 57.521 185.016 45.961 171.994 36.051 157.526 C 35.195 156.277 33.514 155.594 32.216 154.649" />
    <path fill="#6568F7"
        d="M 314.158 154.804 C 305.913 144.89 297.874 134.397 289.306 124.354 C 283.195 117.192 276.372 110.637 269.722 103.591 C 273.057 105.001 274.218 102.354 274.876 100.036 C 278.085 88.723 282.469 77.506 283.806 65.952 C 285.922 47.651 285.967 29.109 286.834 10.666 C 286.982 7.52 286.854 4.36 286.854 0.566 L 346.247 0.566 C 346.247 4.862 346.395 9.156 346.222 13.436 C 345.378 34.206 345.449 55.076 343.294 75.713 C 340.67 100.826 331.457 124.022 318.166 145.55 C 316.475 148.29 315.465 151.45 314.158 154.803" />
    <path fill="#5D50F6"
        d="M 31.944 154.854 C 33.514 155.594 35.195 156.277 36.051 157.526 C 45.961 171.994 57.521 185.016 70.084 197.21 C 71.615 198.696 72.269 201.086 73.382 203.442 C 73.435 203.828 73.372 203.812 73.217 203.847 C 72.98 203.962 72.813 204.075 72.829 204.114 C 72.911 204.317 73.041 204.5 73.154 204.69 C 69.54 217.529 65.927 230.368 61.956 243.834 C 60.845 249.658 59.567 254.841 59.441 260.053 C 59.119 273.333 59.313 286.626 59.298 299.914 C 59.29 306.808 59.287 306.759 52.155 306.818 C 37.94 306.935 23.725 307.113 9.511 307.265 C 8.004 307.349 6.498 307.433 4.416 307.065 C 3.321 304.599 2.376 302.588 2.353 300.567 C 2.213 287.747 2.313 274.923 2.238 262.101 C 2.224 259.646 1.782 257.193 1.538 254.739 C 2.838 225.228 9.393 197.049 23.006 170.692 C 25.738 165.401 28.774 160.267 31.943 154.854" />
    <path fill="#6568F7"
        d="M 232.02 154.557 C 233.832 155.548 236.172 156.113 237.372 157.597 C 249.284 172.337 261.018 187.22 272.758 202.097 C 273.455 202.981 273.773 204.163 274.293 205.495 C 273.416 204.443 272.513 203.102 271.355 201.382 C 267.995 204.459 264.679 207.195 261.71 210.266 C 249.367 223.03 236.52 235.378 225.004 248.856 C 210.84 265.433 205.059 285.684 203.268 307.554 C 185.846 307.554 168.598 307.554 151.248 307.26 C 152.636 306.886 154.126 306.738 155.616 306.736 C 169.428 306.717 183.241 306.728 197.053 306.719 C 199.413 306.718 201.72 306.88 202.293 303.563 C 203.336 297.527 204.743 291.553 205.77 285.515 C 206.011 284.093 205.75 281.452 205.037 281.182 C 199.502 279.092 199.368 273.937 198.591 269.624 C 196.076 255.671 190.071 243.301 182.776 231.354 C 179.876 226.604 177.663 221.434 175.218 216.126 C 176.355 214.316 177.258 212.691 178.492 211.376 C 196.309 192.412 214.17 173.49 232.02 154.556" />
    <path fill="#8254F5"
        d="M 175.137 216.454 C 177.663 221.434 179.876 226.604 182.777 231.354 C 190.071 243.301 196.077 255.671 198.591 269.624 C 199.368 273.937 199.502 279.093 205.037 281.182 C 205.75 281.452 206.011 284.093 205.77 285.515 C 204.742 291.553 203.336 297.527 202.293 303.563 C 201.72 306.88 199.413 306.718 197.053 306.719 C 183.241 306.728 169.428 306.717 155.616 306.736 C 154.126 306.738 152.636 306.886 150.803 307.154 C 148.66 307.354 146.86 307.366 144.65 306.813 C 143.583 302.104 142.927 297.961 142.271 293.818 C 142.154 293.453 142.037 293.088 142.021 292.071 C 141.701 289.938 141.283 288.458 140.864 286.978 C 140.728 286.758 140.592 286.537 140.593 285.851 C 140.913 285.244 141.049 285.066 141.135 284.851 C 143.09 281.226 145.468 277.763 146.92 273.948 C 151.014 263.188 154.387 252.143 158.742 241.498 C 160.772 236.538 164.381 232.216 167.339 227.648 C 169.847 223.773 172.614 220.008 171.598 214.88 C 173.124 215.354 174.131 215.904 175.138 216.454 M 142.047 15.844 C 142.804 12.435 143.871 9.114 144.082 5.739 C 144.268 2.774 145.136 1.622 148.178 1.641 C 164.803 1.74 181.43 1.735 198.056 1.671 C 200.86 1.659 201.991 2.389 202.376 5.521 C 204.902 26.055 197.917 44.365 189.179 62.158 C 185.484 69.68 180.555 76.593 176.245 83.818 C 175.411 85.215 174.845 86.773 173.921 88.678 C 173.395 89.231 173.168 89.16 172.577 88.838 C 171.864 88.764 171.58 88.737 171.049 88.477 C 170.261 87.223 169.932 85.987 169.146 85.213 C 159.366 75.577 154.798 63.165 150.779 50.523 C 148.532 43.454 146.764 36.228 144.944 29.03 C 144.223 26.178 142.724 25.717 140.342 26.395 C 140.945 22.689 141.505 19.378 142.065 16.068 C 142.065 16.068 141.985 15.908 142.047 15.844" />
    <path fill="#5D50F6"
        d="M 20.445 255.199 C 11.782 257.193 2.224 259.646 2.238 262.101 C 12.313 274.923 2.212 287.746 2.353 300.567 C 12.376 302.588 3.321 304.599 3.98 306.934 C 1.884 308.035 1.093 305.832 1.104 303.784 C 2.189 287.742 0.271 271.7 1.445 255.199 L 20.445 255.199 Z M 76.282 107.107 C 81.25 102.069 86.309 97.39 91.326 92.667 C 108.277 76.705 126.109 61.464 135.584 39.308 C 137.238 35.442 138.72 31.503 140.29 27.194 C 142.724 25.717 144.223 26.178 144.944 29.03 C 146.764 36.228 148.532 43.454 150.779 50.524 C 154.798 63.164 159.366 75.577 169.146 85.214 C 169.932 85.987 170.261 87.223 171.03 88.821 C 171.284 89.857 171.31 90.317 171.337 90.776 C 171.337 90.776 171.291 90.721 171.083 90.82 C 170.786 91.113 170.527 91.442 170.313 91.799 C 170.313 91.799 170.346 91.704 170.107 91.855 C 169.683 92.588 169.497 93.168 169.311 93.749 C 169.311 93.749 169.274 93.702 169.075 93.819 C 168.68 94.213 168.485 94.489 168.29 94.766 C 168.29 94.766 168.316 94.702 168.104 94.835 C 167.825 95.151 167.585 95.499 167.391 95.872 C 167.391 95.872 167.331 95.815 167.128 95.895 C 166.82 96.16 166.545 96.46 166.308 96.789 C 166.308 96.789 166.361 96.737 166.03 96.799 C 165.263 97.846 164.827 98.829 164.39 99.813 C 164.39 99.813 164.322 99.771 164.12 99.87 C 163.728 100.263 163.54 100.557 163.351 100.85 C 163.351 100.85 163.338 100.761 163.139 100.875 C 162.85 101.185 162.596 101.525 162.382 101.89 C 162.382 101.89 162.368 101.793 162.163 101.886 C 161.744 102.258 161.53 102.536 161.316 102.816 C 161.316 102.816 161.297 102.739 161.103 102.856 C 160.716 103.261 160.523 103.551 160.33 103.84 C 160.33 103.84 160.333 103.732 160.12 103.89 C 159.713 104.608 159.52 105.168 159.328 105.729 C 159.328 105.729 159.28 105.71 158.945 105.749 C 157.584 107.167 156.558 108.547 155.532 109.927 C 155.532 109.927 155.455 109.892 155.22 109.959 C 154.825 110.349 154.666 110.672 154.507 110.994 C 154.507 110.994 154.48 110.891 154.257 110.972 C 153.871 111.379 153.709 111.705 153.547 112.031 C 153.547 112.031 153.627 112.043 153.267 111.984 C 151.504 113.642 150.101 115.359 148.697 117.077 C 148.697 117.077 148.66 117.075 148.369 117.08 C 147.953 117.415 147.828 117.744 147.702 118.074 C 147.702 118.074 147.568 118.12 147.325 118.132 C 146.832 118.676 146.581 119.207 146.33 119.738 C 146.33 119.738 146.284 119.714 146.083 119.835 C 145.607 120.16 145.416 120.425 145.308 120.752 C 145.308 120.752 145.304 120.692 144.992 120.751 C 144.23 121.453 143.78 122.096 143.33 122.74 C 143.33 122.74 143.288 122.719 143.085 122.836 C 142.608 123.156 142.417 123.419 142.31 123.743 C 142.31 123.743 142.274 123.694 142.08 123.821 C 141.61 124.147 141.419 124.407 141.313 124.73 C 141.313 124.73 141.273 124.715 140.945 124.75 C 139.855 125.764 139.092 126.742 138.33 127.721 C 138.33 127.721 138.3 127.697 138.087 127.824 C 137.604 128.147 137.417 128.404 137.314 128.723 C 137.314 128.723 137.281 128.716 136.978 128.754 C 136.356 129.236 136.038 129.68 135.718 130.124 L 135.371 130.106 C 134.944 130.416 134.809 130.742 134.674 131.068 C 134.674 131.068 134.726 131.211 134.337 131.104 C 132.494 132.647 131.04 134.296 129.587 135.946 C 129.587 135.946 129.477 135.949 129.219 135.966 C 128.745 136.25 128.529 136.516 128.313 136.782 C 128.313 136.782 128.29 136.716 128.085 136.82 C 127.685 137.21 127.491 137.494 127.297 137.778 C 127.297 137.778 127.289 137.709 127.085 137.819 C 126.685 138.212 126.49 138.495 126.295 138.777 C 126.295 138.777 126.288 138.708 126.083 138.819 C 125.683 139.213 125.488 139.497 125.293 139.78 C 125.293 139.78 125.287 139.71 125.086 139.822 C 124.686 140.217 124.489 140.498 124.291 140.78 C 124.291 140.78 124.289 140.708 124.086 140.82 C 123.684 141.216 123.486 141.5 123.288 141.783 C 123.288 141.783 123.283 141.707 123.089 141.826 C 122.692 142.223 122.489 142.501 122.287 142.779 C 122.287 142.779 122.285 142.705 122.089 142.826 C 121.792 143.12 121.522 143.439 121.283 143.781 C 121.283 143.781 121.279 143.702 121.091 143.829 C 120.798 144.125 120.527 144.441 120.281 144.777 C 120.281 144.777 120.281 144.7 120.088 144.822 C 119.69 145.219 119.484 145.494 119.278 145.769 C 119.278 145.769 119.274 145.698 119.09 145.829 C 118.695 146.227 118.485 146.494 118.274 146.762 C 118.274 146.762 118.273 146.692 118.087 146.826 C 117.692 147.226 117.484 147.494 117.275 147.762 C 117.275 147.762 117.273 147.693 117.088 147.827 C 116.694 148.231 116.485 148.5 116.276 148.769 C 116.276 148.769 116.271 148.695 116.101 148.841 C 115.713 149.245 115.495 149.503 115.277 149.762 C 115.277 149.762 115.274 149.694 115.099 149.844 C 114.705 150.257 114.487 150.518 114.269 150.78 C 114.269 150.78 114.302 150.708 113.984 150.716 C 112.741 150.968 111.504 151.252 110.276 151.566 C 105.934 146.452 101.35 141.521 97.306 136.181 C 90.148 126.733 83.319 117.037 76.282 107.107" />
</svg>